%TF.GenerationSoftware,KiCad,Pcbnew,8.0.8-8.0.8-0~ubuntu22.04.1*%
%TF.CreationDate,2025-02-04T17:37:33+09:00*%
%TF.ProjectId,k2503100,6b323530-3331-4303-902e-6b696361645f,1.20*%
%TF.SameCoordinates,Original*%
%TF.FileFunction,Profile,NP*%
%FSLAX46Y46*%
G04 Gerber Fmt 4.6, Leading zero omitted, Abs format (unit mm)*
G04 Created by KiCad (PCBNEW 8.0.8-8.0.8-0~ubuntu22.04.1) date 2025-02-04 17:37:33*
%MOMM*%
%LPD*%
G01*
G04 APERTURE LIST*
%TA.AperFunction,Profile*%
%ADD10C,0.150000*%
%TD*%
%TA.AperFunction,Profile*%
%ADD11C,0.120000*%
%TD*%
G04 APERTURE END LIST*
D10*
X322230000Y-230000000D02*
X62230000Y-230000000D01*
X62230000Y-60000000D02*
X322230000Y-60000000D01*
X322230000Y-60000000D02*
X322230000Y-230000000D01*
X62230000Y-230000000D02*
X62230000Y-60000000D01*
D11*
%TO.C,SW322*%
X216226000Y-154178000D02*
G75*
G02*
X215066000Y-154178000I-580000J0D01*
G01*
X215066000Y-154178000D02*
G75*
G02*
X216226000Y-154178000I580000J0D01*
G01*
X223846000Y-138938000D02*
G75*
G02*
X222686000Y-138938000I-580000J0D01*
G01*
X222686000Y-138938000D02*
G75*
G02*
X223846000Y-138938000I580000J0D01*
G01*
%TO.C,SW326*%
X124786000Y-186182000D02*
G75*
G02*
X123626000Y-186182000I-580000J0D01*
G01*
X123626000Y-186182000D02*
G75*
G02*
X124786000Y-186182000I580000J0D01*
G01*
X132406000Y-170942000D02*
G75*
G02*
X131246000Y-170942000I-580000J0D01*
G01*
X131246000Y-170942000D02*
G75*
G02*
X132406000Y-170942000I580000J0D01*
G01*
%TO.C,SW312*%
X170506000Y-122174000D02*
G75*
G02*
X169346000Y-122174000I-580000J0D01*
G01*
X169346000Y-122174000D02*
G75*
G02*
X170506000Y-122174000I580000J0D01*
G01*
X178126000Y-106934000D02*
G75*
G02*
X176966000Y-106934000I-580000J0D01*
G01*
X176966000Y-106934000D02*
G75*
G02*
X178126000Y-106934000I580000J0D01*
G01*
%TO.C,SW330*%
X216226000Y-186182000D02*
G75*
G02*
X215066000Y-186182000I-580000J0D01*
G01*
X215066000Y-186182000D02*
G75*
G02*
X216226000Y-186182000I580000J0D01*
G01*
X223846000Y-170942000D02*
G75*
G02*
X222686000Y-170942000I-580000J0D01*
G01*
X222686000Y-170942000D02*
G75*
G02*
X223846000Y-170942000I580000J0D01*
G01*
%TO.C,SW320*%
X170506000Y-154178000D02*
G75*
G02*
X169346000Y-154178000I-580000J0D01*
G01*
X169346000Y-154178000D02*
G75*
G02*
X170506000Y-154178000I580000J0D01*
G01*
X178126000Y-138938000D02*
G75*
G02*
X176966000Y-138938000I-580000J0D01*
G01*
X176966000Y-138938000D02*
G75*
G02*
X178126000Y-138938000I580000J0D01*
G01*
%TO.C,SW324*%
X261946000Y-154178000D02*
G75*
G02*
X260786000Y-154178000I-580000J0D01*
G01*
X260786000Y-154178000D02*
G75*
G02*
X261946000Y-154178000I580000J0D01*
G01*
X269566000Y-138938000D02*
G75*
G02*
X268406000Y-138938000I-580000J0D01*
G01*
X268406000Y-138938000D02*
G75*
G02*
X269566000Y-138938000I580000J0D01*
G01*
%TO.C,SW310*%
X124786000Y-122174000D02*
G75*
G02*
X123626000Y-122174000I-580000J0D01*
G01*
X123626000Y-122174000D02*
G75*
G02*
X124786000Y-122174000I580000J0D01*
G01*
X132406000Y-106934000D02*
G75*
G02*
X131246000Y-106934000I-580000J0D01*
G01*
X131246000Y-106934000D02*
G75*
G02*
X132406000Y-106934000I580000J0D01*
G01*
%TO.C,SW329*%
X193366000Y-186182000D02*
G75*
G02*
X192206000Y-186182000I-580000J0D01*
G01*
X192206000Y-186182000D02*
G75*
G02*
X193366000Y-186182000I580000J0D01*
G01*
X200986000Y-170942000D02*
G75*
G02*
X199826000Y-170942000I-580000J0D01*
G01*
X199826000Y-170942000D02*
G75*
G02*
X200986000Y-170942000I580000J0D01*
G01*
%TO.C,SW303*%
X147646000Y-90170000D02*
G75*
G02*
X146486000Y-90170000I-580000J0D01*
G01*
X146486000Y-90170000D02*
G75*
G02*
X147646000Y-90170000I580000J0D01*
G01*
X155266000Y-74930000D02*
G75*
G02*
X154106000Y-74930000I-580000J0D01*
G01*
X154106000Y-74930000D02*
G75*
G02*
X155266000Y-74930000I580000J0D01*
G01*
%TO.C,SW313*%
X193366000Y-122174000D02*
G75*
G02*
X192206000Y-122174000I-580000J0D01*
G01*
X192206000Y-122174000D02*
G75*
G02*
X193366000Y-122174000I580000J0D01*
G01*
X200986000Y-106934000D02*
G75*
G02*
X199826000Y-106934000I-580000J0D01*
G01*
X199826000Y-106934000D02*
G75*
G02*
X200986000Y-106934000I580000J0D01*
G01*
%TO.C,SW319*%
X147646000Y-154178000D02*
G75*
G02*
X146486000Y-154178000I-580000J0D01*
G01*
X146486000Y-154178000D02*
G75*
G02*
X147646000Y-154178000I580000J0D01*
G01*
X155266000Y-138938000D02*
G75*
G02*
X154106000Y-138938000I-580000J0D01*
G01*
X154106000Y-138938000D02*
G75*
G02*
X155266000Y-138938000I580000J0D01*
G01*
%TO.C,SW323*%
X239086000Y-154178000D02*
G75*
G02*
X237926000Y-154178000I-580000J0D01*
G01*
X237926000Y-154178000D02*
G75*
G02*
X239086000Y-154178000I580000J0D01*
G01*
X246706000Y-138938000D02*
G75*
G02*
X245546000Y-138938000I-580000J0D01*
G01*
X245546000Y-138938000D02*
G75*
G02*
X246706000Y-138938000I580000J0D01*
G01*
%TO.C,SW321*%
X193366000Y-154178000D02*
G75*
G02*
X192206000Y-154178000I-580000J0D01*
G01*
X192206000Y-154178000D02*
G75*
G02*
X193366000Y-154178000I580000J0D01*
G01*
X200986000Y-138938000D02*
G75*
G02*
X199826000Y-138938000I-580000J0D01*
G01*
X199826000Y-138938000D02*
G75*
G02*
X200986000Y-138938000I580000J0D01*
G01*
%TO.C,SW3*%
X250008000Y-222090000D02*
G75*
G02*
X248848000Y-222090000I-580000J0D01*
G01*
X248848000Y-222090000D02*
G75*
G02*
X250008000Y-222090000I580000J0D01*
G01*
X257628000Y-206850000D02*
G75*
G02*
X256468000Y-206850000I-580000J0D01*
G01*
X256468000Y-206850000D02*
G75*
G02*
X257628000Y-206850000I580000J0D01*
G01*
%TO.C,SW328*%
X170506000Y-186182000D02*
G75*
G02*
X169346000Y-186182000I-580000J0D01*
G01*
X169346000Y-186182000D02*
G75*
G02*
X170506000Y-186182000I580000J0D01*
G01*
X178126000Y-170942000D02*
G75*
G02*
X176966000Y-170942000I-580000J0D01*
G01*
X176966000Y-170942000D02*
G75*
G02*
X178126000Y-170942000I580000J0D01*
G01*
%TO.C,SW307*%
X239086000Y-90170000D02*
G75*
G02*
X237926000Y-90170000I-580000J0D01*
G01*
X237926000Y-90170000D02*
G75*
G02*
X239086000Y-90170000I580000J0D01*
G01*
X246706000Y-74930000D02*
G75*
G02*
X245546000Y-74930000I-580000J0D01*
G01*
X245546000Y-74930000D02*
G75*
G02*
X246706000Y-74930000I580000J0D01*
G01*
%TO.C,SW315*%
X239086000Y-122174000D02*
G75*
G02*
X237926000Y-122174000I-580000J0D01*
G01*
X237926000Y-122174000D02*
G75*
G02*
X239086000Y-122174000I580000J0D01*
G01*
X246706000Y-106934000D02*
G75*
G02*
X245546000Y-106934000I-580000J0D01*
G01*
X245546000Y-106934000D02*
G75*
G02*
X246706000Y-106934000I580000J0D01*
G01*
%TO.C,SW2*%
X136216000Y-222090000D02*
G75*
G02*
X135056000Y-222090000I-580000J0D01*
G01*
X135056000Y-222090000D02*
G75*
G02*
X136216000Y-222090000I580000J0D01*
G01*
X143836000Y-206850000D02*
G75*
G02*
X142676000Y-206850000I-580000J0D01*
G01*
X142676000Y-206850000D02*
G75*
G02*
X143836000Y-206850000I580000J0D01*
G01*
%TO.C,SW325*%
X101926000Y-186182000D02*
G75*
G02*
X100766000Y-186182000I-580000J0D01*
G01*
X100766000Y-186182000D02*
G75*
G02*
X101926000Y-186182000I580000J0D01*
G01*
X109546000Y-170942000D02*
G75*
G02*
X108386000Y-170942000I-580000J0D01*
G01*
X108386000Y-170942000D02*
G75*
G02*
X109546000Y-170942000I580000J0D01*
G01*
%TO.C,SW317*%
X101926000Y-154178000D02*
G75*
G02*
X100766000Y-154178000I-580000J0D01*
G01*
X100766000Y-154178000D02*
G75*
G02*
X101926000Y-154178000I580000J0D01*
G01*
X109546000Y-138938000D02*
G75*
G02*
X108386000Y-138938000I-580000J0D01*
G01*
X108386000Y-138938000D02*
G75*
G02*
X109546000Y-138938000I580000J0D01*
G01*
%TO.C,SW331*%
X239086000Y-186182000D02*
G75*
G02*
X237926000Y-186182000I-580000J0D01*
G01*
X237926000Y-186182000D02*
G75*
G02*
X239086000Y-186182000I580000J0D01*
G01*
X246706000Y-170942000D02*
G75*
G02*
X245546000Y-170942000I-580000J0D01*
G01*
X245546000Y-170942000D02*
G75*
G02*
X246706000Y-170942000I580000J0D01*
G01*
%TO.C,SW327*%
X147646000Y-186182000D02*
G75*
G02*
X146486000Y-186182000I-580000J0D01*
G01*
X146486000Y-186182000D02*
G75*
G02*
X147646000Y-186182000I580000J0D01*
G01*
X155266000Y-170942000D02*
G75*
G02*
X154106000Y-170942000I-580000J0D01*
G01*
X154106000Y-170942000D02*
G75*
G02*
X155266000Y-170942000I580000J0D01*
G01*
%TO.C,SW301*%
X101926000Y-90170000D02*
G75*
G02*
X100766000Y-90170000I-580000J0D01*
G01*
X100766000Y-90170000D02*
G75*
G02*
X101926000Y-90170000I580000J0D01*
G01*
X109546000Y-74930000D02*
G75*
G02*
X108386000Y-74930000I-580000J0D01*
G01*
X108386000Y-74930000D02*
G75*
G02*
X109546000Y-74930000I580000J0D01*
G01*
%TO.C,SW332*%
X261946000Y-186182000D02*
G75*
G02*
X260786000Y-186182000I-580000J0D01*
G01*
X260786000Y-186182000D02*
G75*
G02*
X261946000Y-186182000I580000J0D01*
G01*
X269566000Y-170942000D02*
G75*
G02*
X268406000Y-170942000I-580000J0D01*
G01*
X268406000Y-170942000D02*
G75*
G02*
X269566000Y-170942000I580000J0D01*
G01*
%TO.C,SW302*%
X124786000Y-90170000D02*
G75*
G02*
X123626000Y-90170000I-580000J0D01*
G01*
X123626000Y-90170000D02*
G75*
G02*
X124786000Y-90170000I580000J0D01*
G01*
X132406000Y-74930000D02*
G75*
G02*
X131246000Y-74930000I-580000J0D01*
G01*
X131246000Y-74930000D02*
G75*
G02*
X132406000Y-74930000I580000J0D01*
G01*
%TO.C,SW305*%
X193366000Y-90170000D02*
G75*
G02*
X192206000Y-90170000I-580000J0D01*
G01*
X192206000Y-90170000D02*
G75*
G02*
X193366000Y-90170000I580000J0D01*
G01*
X200986000Y-74930000D02*
G75*
G02*
X199826000Y-74930000I-580000J0D01*
G01*
X199826000Y-74930000D02*
G75*
G02*
X200986000Y-74930000I580000J0D01*
G01*
%TO.C,SW306*%
X216226000Y-90170000D02*
G75*
G02*
X215066000Y-90170000I-580000J0D01*
G01*
X215066000Y-90170000D02*
G75*
G02*
X216226000Y-90170000I580000J0D01*
G01*
X223846000Y-74930000D02*
G75*
G02*
X222686000Y-74930000I-580000J0D01*
G01*
X222686000Y-74930000D02*
G75*
G02*
X223846000Y-74930000I580000J0D01*
G01*
%TO.C,SW308*%
X261946000Y-90170000D02*
G75*
G02*
X260786000Y-90170000I-580000J0D01*
G01*
X260786000Y-90170000D02*
G75*
G02*
X261946000Y-90170000I580000J0D01*
G01*
X269566000Y-74930000D02*
G75*
G02*
X268406000Y-74930000I-580000J0D01*
G01*
X268406000Y-74930000D02*
G75*
G02*
X269566000Y-74930000I580000J0D01*
G01*
%TO.C,SW314*%
X216226000Y-122174000D02*
G75*
G02*
X215066000Y-122174000I-580000J0D01*
G01*
X215066000Y-122174000D02*
G75*
G02*
X216226000Y-122174000I580000J0D01*
G01*
X223846000Y-106934000D02*
G75*
G02*
X222686000Y-106934000I-580000J0D01*
G01*
X222686000Y-106934000D02*
G75*
G02*
X223846000Y-106934000I580000J0D01*
G01*
%TO.C,SW311*%
X147646000Y-122174000D02*
G75*
G02*
X146486000Y-122174000I-580000J0D01*
G01*
X146486000Y-122174000D02*
G75*
G02*
X147646000Y-122174000I580000J0D01*
G01*
X155266000Y-106934000D02*
G75*
G02*
X154106000Y-106934000I-580000J0D01*
G01*
X154106000Y-106934000D02*
G75*
G02*
X155266000Y-106934000I580000J0D01*
G01*
%TO.C,SW318*%
X124786000Y-154178000D02*
G75*
G02*
X123626000Y-154178000I-580000J0D01*
G01*
X123626000Y-154178000D02*
G75*
G02*
X124786000Y-154178000I580000J0D01*
G01*
X132406000Y-138938000D02*
G75*
G02*
X131246000Y-138938000I-580000J0D01*
G01*
X131246000Y-138938000D02*
G75*
G02*
X132406000Y-138938000I580000J0D01*
G01*
%TO.C,SW316*%
X261946000Y-122174000D02*
G75*
G02*
X260786000Y-122174000I-580000J0D01*
G01*
X260786000Y-122174000D02*
G75*
G02*
X261946000Y-122174000I580000J0D01*
G01*
X269566000Y-106934000D02*
G75*
G02*
X268406000Y-106934000I-580000J0D01*
G01*
X268406000Y-106934000D02*
G75*
G02*
X269566000Y-106934000I580000J0D01*
G01*
%TO.C,SW309*%
X101926000Y-122174000D02*
G75*
G02*
X100766000Y-122174000I-580000J0D01*
G01*
X100766000Y-122174000D02*
G75*
G02*
X101926000Y-122174000I580000J0D01*
G01*
X109546000Y-106934000D02*
G75*
G02*
X108386000Y-106934000I-580000J0D01*
G01*
X108386000Y-106934000D02*
G75*
G02*
X109546000Y-106934000I580000J0D01*
G01*
%TO.C,SW304*%
X170506000Y-90170000D02*
G75*
G02*
X169346000Y-90170000I-580000J0D01*
G01*
X169346000Y-90170000D02*
G75*
G02*
X170506000Y-90170000I580000J0D01*
G01*
X178126000Y-74930000D02*
G75*
G02*
X176966000Y-74930000I-580000J0D01*
G01*
X176966000Y-74930000D02*
G75*
G02*
X178126000Y-74930000I580000J0D01*
G01*
%TO.C,SW1*%
X101672000Y-222090000D02*
G75*
G02*
X100512000Y-222090000I-580000J0D01*
G01*
X100512000Y-222090000D02*
G75*
G02*
X101672000Y-222090000I580000J0D01*
G01*
X109292000Y-206850000D02*
G75*
G02*
X108132000Y-206850000I-580000J0D01*
G01*
X108132000Y-206850000D02*
G75*
G02*
X109292000Y-206850000I580000J0D01*
G01*
%TD*%
M02*
