M48
; DRILL file {KiCad 8.0.8-8.0.8-0~ubuntu22.04.1} date 2025-02-04T17:38:20+0900
; FORMAT={-:-/ absolute / inch / decimal}
; #@! TF.CreationDate,2025-02-04T17:38:20+09:00
; #@! TF.GenerationSoftware,Kicad,Pcbnew,8.0.8-8.0.8-0~ubuntu22.04.1
; #@! TF.FileFunction,MixedPlating,1,2
FMAT,2
INCH
; #@! TA.AperFunction,Plated,PTH,ViaDrill
T1C0.0157
; #@! TA.AperFunction,Plated,PTH,ComponentDrill
T2C0.0300
; #@! TA.AperFunction,Plated,PTH,ComponentDrill
T3C0.0315
; #@! TA.AperFunction,Plated,PTH,ComponentDrill
T4C0.0374
; #@! TA.AperFunction,Plated,PTH,ComponentDrill
T5C0.0394
; #@! TA.AperFunction,Plated,PTH,ComponentDrill
T6C0.0433
; #@! TA.AperFunction,Plated,PTH,ComponentDrill
T7C0.1378
; #@! TA.AperFunction,NonPlated,NPTH,ComponentDrill
T8C0.1260
%
G90
G05
T1
X2.91Y-5.26
X2.91Y-8.48
X2.97Y-5.31
X2.97Y-8.41
X3.04Y-5.3585
X3.04Y-8.35
X3.178Y-2.73
X3.178Y-6.8391
X3.28Y-2.78
X3.28Y-5.57
X3.38Y-2.83
X3.38Y-4.3121
X3.47Y-2.88
X3.47Y-3.0481
X3.6226Y-2.63
X3.6226Y-3.24
X3.6226Y-4.4981
X3.6226Y-5.7581
X3.6226Y-7.0181
X3.92Y-6.69
X4.0785Y-7.8911
X4.1878Y-3.9374
X4.3059Y-3.9748
X4.4749Y-8.314
X4.82Y-6.65
X5.0919Y-3.7674
X5.21Y-3.8048
X5.4385Y-7.8921
X5.72Y-6.61
X5.8309Y-8.314
X5.9919Y-5.0674
X6.11Y-5.1048
X6.3959Y-5.0274
X6.3959Y-7.643
X6.62Y-6.57
X6.68Y-5.02
X6.68Y-5.26
X6.89Y-5.175
X7.0081Y-5.2124
X7.2759Y-5.135
X7.2759Y-7.593
X7.37Y-5.02
X7.37Y-5.26
X7.51Y-6.53
X7.7919Y-6.2924
X7.91Y-6.3298
X8.42Y-6.49
X8.6919Y-6.3474
X8.81Y-6.3848
X9.31Y-6.45
X9.59Y-7.503
X9.7081Y-7.543
X9.9885Y-7.8921
X10.21Y-5.41
X10.3089Y-8.314
X10.4909Y-7.503
X10.61Y-7.543
X11.02Y-4.81
X11.02Y-5.26
X11.07Y-4.91
X11.07Y-5.31
X11.11Y-4.11
X11.115Y-7.125
X11.155Y-4.215
X11.155Y-5.595
X11.16Y-6.45
X11.195Y-4.315
X11.195Y-4.605
X11.1972Y-5.3572
X11.2Y-5.01
X11.2Y-6.49
X11.24Y-6.53
X11.25Y-3.49
X11.25Y-4.41
X11.28Y-6.57
X11.3Y-5.31
X11.32Y-6.61
X11.3469Y-4.0069
X11.35Y-4.56
X11.36Y-6.65
X11.45Y-2.63
X11.45Y-3.1
X11.45Y-6.67
X11.52Y-4.61
X11.52Y-4.8
X11.69Y-4.51
X11.69Y-4.7
X11.7Y-3.71
X11.75Y-4.6
X11.78Y-3.71
X11.84Y-5.71
X11.84Y-6.25
X11.88Y-5.81
X11.88Y-6.31
X11.91Y-5.91
X11.9109Y-7.393
X11.94Y-6.01
X11.94Y-7.468
X12.15Y-2.96
X12.15Y-4.11
X12.15Y-5.61
X12.15Y-7.593
X12.18Y-2.93
X12.18Y-4.21
X12.2Y-5.51
X12.2Y-7.643
X12.21Y-2.9
X12.21Y-4.31
X12.24Y-2.87
X12.24Y-4.41
X12.25Y-5.513
X12.25Y-7.8171
X12.27Y-3.5
X12.27Y-5.31
X12.3Y-3.45
X12.3Y-5.41
X12.33Y-4.71
X12.33Y-5.513
T2
X4.08Y-8.2437
X4.09Y-3.05
X4.09Y-4.31
X4.09Y-5.57
X4.09Y-6.83
X4.18Y-8.2437
X4.19Y-3.05
X4.19Y-4.31
X4.19Y-5.57
X4.19Y-6.83
X4.99Y-3.05
X4.99Y-4.31
X4.99Y-5.57
X4.99Y-6.83
X5.09Y-3.05
X5.09Y-4.31
X5.09Y-5.57
X5.09Y-6.83
X5.44Y-8.2437
X5.54Y-8.2437
X5.89Y-3.05
X5.89Y-4.31
X5.89Y-5.57
X5.89Y-6.83
X5.99Y-3.05
X5.99Y-4.31
X5.99Y-5.57
X5.99Y-6.83
X6.79Y-3.05
X6.79Y-4.31
X6.79Y-5.57
X6.79Y-6.83
X6.89Y-3.05
X6.89Y-4.31
X6.89Y-5.57
X6.89Y-6.83
X7.69Y-3.05
X7.69Y-4.31
X7.69Y-5.57
X7.69Y-6.83
X7.79Y-3.05
X7.79Y-4.31
X7.79Y-5.57
X7.79Y-6.83
X8.59Y-3.05
X8.59Y-4.31
X8.59Y-5.57
X8.59Y-6.83
X8.69Y-3.05
X8.69Y-4.31
X8.69Y-5.57
X8.69Y-6.83
X9.49Y-3.05
X9.49Y-4.31
X9.49Y-5.57
X9.49Y-6.83
X9.59Y-3.05
X9.59Y-4.31
X9.59Y-5.57
X9.59Y-6.83
X9.92Y-8.2437
X10.02Y-8.2437
X10.39Y-3.05
X10.39Y-4.31
X10.39Y-5.57
X10.39Y-6.83
X10.49Y-3.05
X10.49Y-4.31
X10.49Y-5.57
X10.49Y-6.83
T3
X11.546Y-4.3206
X11.546Y-4.3994
X11.6Y-4.6
X11.6Y-4.7
X11.6Y-4.8
X11.6Y-4.9
X11.6247Y-4.3206
X11.6247Y-4.3994
X11.7Y-3.8387
X11.7035Y-4.3206
X11.7035Y-4.3994
X11.8Y-3.8387
X11.9Y-4.6
X11.9Y-4.7
X11.9Y-4.8
X11.9Y-4.9
T4
X3.98Y-8.4437
X3.98Y-8.6437
X3.99Y-3.25
X3.99Y-3.45
X3.99Y-4.51
X3.99Y-4.71
X3.99Y-5.77
X3.99Y-5.97
X3.99Y-7.03
X3.99Y-7.23
X4.28Y-8.4437
X4.28Y-8.6437
X4.29Y-3.25
X4.29Y-3.45
X4.29Y-4.51
X4.29Y-4.71
X4.29Y-5.77
X4.29Y-5.97
X4.29Y-7.03
X4.29Y-7.23
X4.89Y-3.25
X4.89Y-3.45
X4.89Y-4.51
X4.89Y-4.71
X4.89Y-5.77
X4.89Y-5.97
X4.89Y-7.03
X4.89Y-7.23
X5.19Y-3.25
X5.19Y-3.45
X5.19Y-4.51
X5.19Y-4.71
X5.19Y-5.77
X5.19Y-5.97
X5.19Y-7.03
X5.19Y-7.23
X5.34Y-8.4437
X5.34Y-8.6437
X5.64Y-8.4437
X5.64Y-8.6437
X5.79Y-3.25
X5.79Y-3.45
X5.79Y-4.51
X5.79Y-4.71
X5.79Y-5.77
X5.79Y-5.97
X5.79Y-7.03
X5.79Y-7.23
X6.09Y-3.25
X6.09Y-3.45
X6.09Y-4.51
X6.09Y-4.71
X6.09Y-5.77
X6.09Y-5.97
X6.09Y-7.03
X6.09Y-7.23
X6.69Y-3.25
X6.69Y-3.45
X6.69Y-4.51
X6.69Y-4.71
X6.69Y-5.77
X6.69Y-5.97
X6.69Y-7.03
X6.69Y-7.23
X6.99Y-3.25
X6.99Y-3.45
X6.99Y-4.51
X6.99Y-4.71
X6.99Y-5.77
X6.99Y-5.97
X6.99Y-7.03
X6.99Y-7.23
X7.59Y-3.25
X7.59Y-3.45
X7.59Y-4.51
X7.59Y-4.71
X7.59Y-5.77
X7.59Y-5.97
X7.59Y-7.03
X7.59Y-7.23
X7.89Y-3.25
X7.89Y-3.45
X7.89Y-4.51
X7.89Y-4.71
X7.89Y-5.77
X7.89Y-5.97
X7.89Y-7.03
X7.89Y-7.23
X8.49Y-3.25
X8.49Y-3.45
X8.49Y-4.51
X8.49Y-4.71
X8.49Y-5.77
X8.49Y-5.97
X8.49Y-7.03
X8.49Y-7.23
X8.79Y-3.25
X8.79Y-3.45
X8.79Y-4.51
X8.79Y-4.71
X8.79Y-5.77
X8.79Y-5.97
X8.79Y-7.03
X8.79Y-7.23
X9.39Y-3.25
X9.39Y-3.45
X9.39Y-4.51
X9.39Y-4.71
X9.39Y-5.77
X9.39Y-5.97
X9.39Y-7.03
X9.39Y-7.23
X9.69Y-3.25
X9.69Y-3.45
X9.69Y-4.51
X9.69Y-4.71
X9.69Y-5.77
X9.69Y-5.97
X9.69Y-7.03
X9.69Y-7.23
X9.82Y-8.4437
X9.82Y-8.6437
X10.12Y-8.4437
X10.12Y-8.6437
X10.29Y-3.25
X10.29Y-3.45
X10.29Y-4.51
X10.29Y-4.71
X10.29Y-5.77
X10.29Y-5.97
X10.29Y-7.03
X10.29Y-7.23
X10.59Y-3.25
X10.59Y-3.45
X10.59Y-4.51
X10.59Y-4.71
X10.59Y-5.77
X10.59Y-5.97
X10.59Y-7.03
X10.59Y-7.23
X11.15Y-3.2
X11.2484Y-3.2
X11.3469Y-3.2
X11.6031Y-3.2
X11.7016Y-3.2
X11.8Y-3.2
X11.8984Y-3.2
T5
X3.5258Y-7.5492
X3.6242Y-7.5492
T6
X11.45Y-3.81
X11.45Y-3.91
X11.45Y-4.01
X11.45Y-4.11
X11.45Y-4.21
X11.45Y-4.31
X11.45Y-4.41
X11.45Y-4.51
X11.45Y-4.61
X11.45Y-4.71
X11.45Y-4.81
X11.45Y-4.91
X11.45Y-5.01
X11.45Y-5.11
X11.45Y-5.21
X11.45Y-5.31
X11.45Y-5.41
X11.45Y-5.51
X11.45Y-5.61
X11.45Y-5.71
X11.45Y-5.81
X11.45Y-5.91
X11.45Y-6.01
X11.45Y-6.11
X11.55Y-3.91
X11.55Y-5.61
X11.65Y-5.61
X11.75Y-5.61
X11.85Y-5.61
X11.9299Y-4.058
X11.9299Y-4.158
X11.9299Y-4.258
X11.9299Y-4.358
X11.9299Y-4.458
X11.95Y-5.61
X12.05Y-3.81
X12.05Y-3.91
X12.05Y-4.01
X12.05Y-4.11
X12.05Y-4.21
X12.05Y-4.31
X12.05Y-4.41
X12.05Y-4.51
X12.05Y-4.61
X12.05Y-4.71
X12.05Y-4.81
X12.05Y-4.91
X12.05Y-5.01
X12.05Y-5.11
X12.05Y-5.21
X12.05Y-5.31
X12.05Y-5.41
X12.05Y-5.51
X12.05Y-5.61
X12.05Y-5.71
X12.05Y-5.81
X12.05Y-5.91
X12.05Y-6.01
X12.05Y-6.11
T7
X2.765Y-2.6772
X2.765Y-5.0394
X2.765Y-8.7402
X6.3083Y-8.7402
X9.261Y-8.7402
X12.3713Y-2.6772
X12.3713Y-8.7402
T8
X5.3937Y-6.2992
X6.2992Y-3.937
X9.0551Y-3.937
X11.5354Y-7.126
X12.4409Y-5.748
M30
