%TF.GenerationSoftware,KiCad,Pcbnew,8.0.8-8.0.8-0~ubuntu22.04.1*%
%TF.CreationDate,2025-02-04T17:37:33+09:00*%
%TF.ProjectId,k2503100,6b323530-3331-4303-902e-6b696361645f,1.20*%
%TF.SameCoordinates,Original*%
%TF.FileFunction,Paste,Top*%
%TF.FilePolarity,Positive*%
%FSLAX46Y46*%
G04 Gerber Fmt 4.6, Leading zero omitted, Abs format (unit mm)*
G04 Created by KiCad (PCBNEW 8.0.8-8.0.8-0~ubuntu22.04.1) date 2025-02-04 17:37:33*
%MOMM*%
%LPD*%
G01*
G04 APERTURE LIST*
G04 Aperture macros list*
%AMRoundRect*
0 Rectangle with rounded corners*
0 $1 Rounding radius*
0 $2 $3 $4 $5 $6 $7 $8 $9 X,Y pos of 4 corners*
0 Add a 4 corners polygon primitive as box body*
4,1,4,$2,$3,$4,$5,$6,$7,$8,$9,$2,$3,0*
0 Add four circle primitives for the rounded corners*
1,1,$1+$1,$2,$3*
1,1,$1+$1,$4,$5*
1,1,$1+$1,$6,$7*
1,1,$1+$1,$8,$9*
0 Add four rect primitives between the rounded corners*
20,1,$1+$1,$2,$3,$4,$5,0*
20,1,$1+$1,$4,$5,$6,$7,0*
20,1,$1+$1,$6,$7,$8,$9,0*
20,1,$1+$1,$8,$9,$2,$3,0*%
G04 Aperture macros list end*
%ADD10RoundRect,0.237500X-0.237500X0.250000X-0.237500X-0.250000X0.237500X-0.250000X0.237500X0.250000X0*%
%ADD11RoundRect,0.237500X0.237500X-0.250000X0.237500X0.250000X-0.237500X0.250000X-0.237500X-0.250000X0*%
%ADD12RoundRect,0.225000X-0.375000X0.225000X-0.375000X-0.225000X0.375000X-0.225000X0.375000X0.225000X0*%
%ADD13RoundRect,0.200000X0.750000X0.200000X-0.750000X0.200000X-0.750000X-0.200000X0.750000X-0.200000X0*%
%ADD14RoundRect,0.200000X-0.200000X0.750000X-0.200000X-0.750000X0.200000X-0.750000X0.200000X0.750000X0*%
%ADD15RoundRect,0.237500X0.250000X0.237500X-0.250000X0.237500X-0.250000X-0.237500X0.250000X-0.237500X0*%
%ADD16RoundRect,0.225000X0.375000X-0.225000X0.375000X0.225000X-0.375000X0.225000X-0.375000X-0.225000X0*%
%ADD17RoundRect,0.200000X0.200000X-0.750000X0.200000X0.750000X-0.200000X0.750000X-0.200000X-0.750000X0*%
G04 APERTURE END LIST*
D10*
%TO.C,R2*%
X261847200Y-209349500D03*
X261847200Y-211174500D03*
%TD*%
D11*
%TO.C,R305*%
X187706000Y-79182000D03*
X187706000Y-77357000D03*
%TD*%
D12*
%TO.C,D204*%
X182118000Y-81662000D03*
X182118000Y-84962000D03*
%TD*%
D11*
%TO.C,R320*%
X164846000Y-143190000D03*
X164846000Y-141365000D03*
%TD*%
%TO.C,R328*%
X164846000Y-175194000D03*
X164846000Y-173369000D03*
%TD*%
D13*
%TO.C,Q306*%
X223774000Y-162174000D03*
X223774000Y-160274000D03*
X220774000Y-161224000D03*
%TD*%
D14*
%TO.C,Q309*%
X92964000Y-79248000D03*
X91064000Y-79248000D03*
X92014000Y-82248000D03*
%TD*%
D11*
%TO.C,R327*%
X141986000Y-175194000D03*
X141986000Y-173369000D03*
%TD*%
D14*
%TO.C,Q311*%
X92964000Y-143256000D03*
X91064000Y-143256000D03*
X92014000Y-146256000D03*
%TD*%
%TO.C,Q312*%
X92964000Y-175260000D03*
X91064000Y-175260000D03*
X92014000Y-178260000D03*
%TD*%
D15*
%TO.C,R338*%
X229917000Y-160274000D03*
X228092000Y-160274000D03*
%TD*%
%TO.C,R336*%
X184808500Y-130429000D03*
X182983500Y-130429000D03*
%TD*%
D11*
%TO.C,R325*%
X96266000Y-175194000D03*
X96266000Y-173369000D03*
%TD*%
D13*
%TO.C,Q305*%
X200914000Y-160777000D03*
X200914000Y-158877000D03*
X197914000Y-159827000D03*
%TD*%
D12*
%TO.C,D206*%
X227838000Y-81662000D03*
X227838000Y-84962000D03*
%TD*%
%TO.C,D211*%
X159258000Y-113666000D03*
X159258000Y-116966000D03*
%TD*%
D16*
%TO.C,D224*%
X273558000Y-145414000D03*
X273558000Y-142114000D03*
%TD*%
D15*
%TO.C,R337*%
X206192500Y-158806000D03*
X204367500Y-158806000D03*
%TD*%
%TO.C,R340*%
X274621000Y-189688000D03*
X272796000Y-189688000D03*
%TD*%
%TO.C,R333*%
X115617000Y-99060000D03*
X113792000Y-99060000D03*
%TD*%
D13*
%TO.C,Q302*%
X132334000Y-96642000D03*
X132334000Y-94742000D03*
X129334000Y-95692000D03*
%TD*%
D11*
%TO.C,R331*%
X233426000Y-175194000D03*
X233426000Y-173369000D03*
%TD*%
%TO.C,R304*%
X164846000Y-79182000D03*
X164846000Y-77357000D03*
%TD*%
D12*
%TO.C,D202*%
X136398000Y-81662000D03*
X136398000Y-84962000D03*
%TD*%
%TO.C,D225*%
X113538000Y-177674000D03*
X113538000Y-180974000D03*
%TD*%
D15*
%TO.C,R335*%
X162456500Y-127696000D03*
X160631500Y-127696000D03*
%TD*%
D11*
%TO.C,R342*%
X85852000Y-111148500D03*
X85852000Y-109323500D03*
%TD*%
D17*
%TO.C,Q1*%
X253709000Y-200459000D03*
X255609000Y-200459000D03*
X254659000Y-197459000D03*
%TD*%
D11*
%TO.C,R330*%
X210566000Y-175194000D03*
X210566000Y-173369000D03*
%TD*%
%TO.C,R317*%
X96266000Y-143190000D03*
X96266000Y-141365000D03*
%TD*%
D10*
%TO.C,R339*%
X250087000Y-187736000D03*
X250087000Y-189561000D03*
%TD*%
D12*
%TO.C,D231*%
X250698000Y-177674000D03*
X250698000Y-180974000D03*
%TD*%
%TO.C,D205*%
X204978000Y-81662000D03*
X204978000Y-84962000D03*
%TD*%
D11*
%TO.C,R306*%
X210566000Y-79182000D03*
X210566000Y-77357000D03*
%TD*%
%TO.C,R310*%
X119126000Y-111186000D03*
X119126000Y-109361000D03*
%TD*%
D12*
%TO.C,D232*%
X273558000Y-177674000D03*
X273558000Y-180974000D03*
%TD*%
D14*
%TO.C,Q310*%
X92964000Y-111252000D03*
X91064000Y-111252000D03*
X92014000Y-114252000D03*
%TD*%
D12*
%TO.C,D213*%
X204978000Y-113666000D03*
X204978000Y-116966000D03*
%TD*%
%TO.C,D209*%
X113538000Y-113664000D03*
X113538000Y-116964000D03*
%TD*%
%TO.C,D217*%
X113538000Y-145670000D03*
X113538000Y-148970000D03*
%TD*%
D11*
%TO.C,R319*%
X141986000Y-143190000D03*
X141986000Y-141365000D03*
%TD*%
%TO.C,R301*%
X96266000Y-79182000D03*
X96266000Y-77357000D03*
%TD*%
D15*
%TO.C,R334*%
X139088500Y-94676000D03*
X137263500Y-94676000D03*
%TD*%
D17*
%TO.C,Q2*%
X138139000Y-200459000D03*
X140039000Y-200459000D03*
X139089000Y-197459000D03*
%TD*%
D10*
%TO.C,R5*%
X113663600Y-209349500D03*
X113663600Y-211174500D03*
%TD*%
D12*
%TO.C,D212*%
X182118000Y-113666000D03*
X182118000Y-116966000D03*
%TD*%
%TO.C,D218*%
X136398000Y-145670000D03*
X136398000Y-148970000D03*
%TD*%
D11*
%TO.C,R303*%
X141986000Y-79182000D03*
X141986000Y-77357000D03*
%TD*%
%TO.C,R332*%
X256286000Y-175194000D03*
X256286000Y-173369000D03*
%TD*%
D12*
%TO.C,D208*%
X273558000Y-81662000D03*
X273558000Y-84962000D03*
%TD*%
%TO.C,D222*%
X227838000Y-145670000D03*
X227838000Y-148970000D03*
%TD*%
D11*
%TO.C,R311*%
X141986000Y-111186000D03*
X141986000Y-109361000D03*
%TD*%
D13*
%TO.C,Q304*%
X178006000Y-132395000D03*
X178006000Y-130495000D03*
X175006000Y-131445000D03*
%TD*%
D11*
%TO.C,R316*%
X256286000Y-111186000D03*
X256286000Y-109361000D03*
%TD*%
D12*
%TO.C,D219*%
X159258000Y-145670000D03*
X159258000Y-148970000D03*
%TD*%
D11*
%TO.C,R329*%
X187706000Y-175194000D03*
X187706000Y-173369000D03*
%TD*%
%TO.C,R321*%
X187706000Y-143190000D03*
X187706000Y-141365000D03*
%TD*%
%TO.C,R315*%
X233426000Y-111186000D03*
X233426000Y-109361000D03*
%TD*%
D12*
%TO.C,D228*%
X182118000Y-177674000D03*
X182118000Y-180974000D03*
%TD*%
D11*
%TO.C,R308*%
X256286000Y-79182000D03*
X256286000Y-77357000D03*
%TD*%
D12*
%TO.C,D215*%
X250698000Y-113666000D03*
X250698000Y-116966000D03*
%TD*%
D11*
%TO.C,R323*%
X233426000Y-143190000D03*
X233426000Y-141365000D03*
%TD*%
D10*
%TO.C,R3*%
X148106000Y-209349500D03*
X148106000Y-211174500D03*
%TD*%
D13*
%TO.C,Q307*%
X246586000Y-191527000D03*
X246586000Y-189627000D03*
X243586000Y-190577000D03*
%TD*%
D10*
%TO.C,R6*%
X110260000Y-200459500D03*
X110260000Y-202284500D03*
%TD*%
D11*
%TO.C,R314*%
X210566000Y-111186000D03*
X210566000Y-109361000D03*
%TD*%
%TO.C,R1*%
X261390000Y-200379500D03*
X261390000Y-198554500D03*
%TD*%
%TO.C,R307*%
X233426000Y-79182000D03*
X233426000Y-77357000D03*
%TD*%
D12*
%TO.C,D214*%
X227838000Y-113666000D03*
X227838000Y-116966000D03*
%TD*%
D13*
%TO.C,Q303*%
X155194000Y-129662000D03*
X155194000Y-127762000D03*
X152194000Y-128712000D03*
%TD*%
D12*
%TO.C,D221*%
X204978000Y-145670000D03*
X204978000Y-148970000D03*
%TD*%
D11*
%TO.C,R322*%
X210566000Y-143190000D03*
X210566000Y-141365000D03*
%TD*%
D13*
%TO.C,Q308*%
X269494000Y-191527000D03*
X269494000Y-189627000D03*
X266494000Y-190577000D03*
%TD*%
D11*
%TO.C,R312*%
X164846000Y-111186000D03*
X164846000Y-109361000D03*
%TD*%
%TO.C,R302*%
X119126000Y-79182000D03*
X119126000Y-77357000D03*
%TD*%
D17*
%TO.C,Q3*%
X103595000Y-200435000D03*
X105495000Y-200435000D03*
X104545000Y-197435000D03*
%TD*%
D11*
%TO.C,R326*%
X119126000Y-175194000D03*
X119126000Y-173369000D03*
%TD*%
D12*
%TO.C,D216*%
X273558000Y-113666000D03*
X273558000Y-116966000D03*
%TD*%
%TO.C,D230*%
X227838000Y-177674000D03*
X227838000Y-180974000D03*
%TD*%
D11*
%TO.C,R309*%
X96266000Y-111186000D03*
X96266000Y-109361000D03*
%TD*%
%TO.C,R343*%
X83312000Y-143406500D03*
X83312000Y-141581500D03*
%TD*%
D12*
%TO.C,D203*%
X159258000Y-81662000D03*
X159258000Y-84962000D03*
%TD*%
D10*
%TO.C,R4*%
X145058000Y-200436000D03*
X145058000Y-202261000D03*
%TD*%
D12*
%TO.C,D207*%
X250698000Y-81662000D03*
X250698000Y-84962000D03*
%TD*%
D13*
%TO.C,Q301*%
X109370500Y-100960000D03*
X109370500Y-99060000D03*
X106370500Y-100010000D03*
%TD*%
D11*
%TO.C,R344*%
X80721200Y-175537500D03*
X80721200Y-173712500D03*
%TD*%
D12*
%TO.C,D220*%
X182118000Y-145670000D03*
X182118000Y-148970000D03*
%TD*%
%TO.C,D227*%
X159258000Y-177674000D03*
X159258000Y-180974000D03*
%TD*%
%TO.C,D223*%
X250698000Y-145670000D03*
X250698000Y-148970000D03*
%TD*%
%TO.C,D229*%
X204978000Y-177674000D03*
X204978000Y-180974000D03*
%TD*%
D11*
%TO.C,R313*%
X187706000Y-111186000D03*
X187706000Y-109361000D03*
%TD*%
%TO.C,R318*%
X119126000Y-143190000D03*
X119126000Y-141365000D03*
%TD*%
D12*
%TO.C,D226*%
X136398000Y-177674000D03*
X136398000Y-180974000D03*
%TD*%
D11*
%TO.C,R341*%
X88138000Y-79248000D03*
X88138000Y-77423000D03*
%TD*%
D12*
%TO.C,D201*%
X113538000Y-81662000D03*
X113538000Y-84962000D03*
%TD*%
D11*
%TO.C,R324*%
X256286000Y-143190000D03*
X256286000Y-141365000D03*
%TD*%
D12*
%TO.C,D210*%
X136398000Y-113664000D03*
X136398000Y-116964000D03*
%TD*%
M02*
